<svg width="90" height="132" viewBox="0 0 90 132" fill="none" xmlns="http://www.w3.org/2000/svg"><g filter="url(#filter0_b_1257_15453)"><path d="M0 0h90v122c0 5.523-4.477 10-10 10H10c-5.523 0-10-4.477-10-10V0z" fill="#080E0D"/></g><path d="M29.05 39.751v-1.47a.719.719 0 00-.586-.712c-5.435-.962-9.564-5.705-9.564-11.417v-6.768c0-.265.216-.482.484-.482h6.767c5.71 0 10.454 4.13 11.417 9.564a.72.72 0 00.712.585h1.471c.446 0 .79-.398.718-.838-1.096-6.92-7.09-12.21-14.318-12.21h-9.424a.726.726 0 00-.727.726v9.424c0 7.228 5.29 13.22 12.21 14.318a.729.729 0 00.84-.72zM44.261 29.05h1.486a.721.721 0 00.72-.687 16.379 16.379 0 015.427-11.525c.327-.295.112-.838-.327-.838h-2.618a.729.729 0 00-.544.242 19.36 19.36 0 00-3.402 5.46 19.34 19.34 0 00-3.403-5.459.726.726 0 00-.546-.243H38.44c-.442 0-.656.544-.328.838a16.385 16.385 0 015.427 11.523.722.722 0 00.722.689zm5.987.002h1.47a.72.72 0 00.712-.588c.964-5.433 5.706-9.562 11.417-9.562h6.769c.265 0 .482.216.482.483v6.767c0 5.71-4.13 10.454-9.564 11.417a.72.72 0 00-.585.71v1.472c0 .446.4.79.838.72 6.92-1.098 12.21-7.09 12.21-14.319V16.73a.726.726 0 00-.725-.727h-9.425c-7.227 0-13.221 5.29-14.319 12.21a.73.73 0 00.72.84zM60.95 44.257v1.485a.72.72 0 00.685.721 16.387 16.387 0 0111.527 5.426c.293.328.838.113.838-.327v-2.617a.73.73 0 00-.243-.544 19.34 19.34 0 00-5.462-3.403 19.331 19.331 0 005.46-3.402.727.727 0 00.245-.546v-2.614c0-.44-.544-.656-.838-.327a16.389 16.389 0 01-11.524 5.426.722.722 0 00-.689.722zm-.002 5.995v1.47c0 .348.244.65.586.711 5.435.963 9.563 5.706 9.563 11.418v6.766a.483.483 0 01-.482.483h-6.767c-5.712 0-10.455-4.129-11.418-9.563a.72.72 0 00-.712-.585h-1.471a.725.725 0 00-.718.838C50.625 68.71 56.619 74 63.848 74h9.424a.726.726 0 00.726-.727v-9.422c0-7.23-5.291-13.222-12.21-14.32a.729.729 0 00-.84.72zM45.736 60.95h-1.485a.721.721 0 00-.721.686 16.377 16.377 0 01-5.427 11.524c-.327.296-.111.84.328.84h2.617a.73.73 0 00.545-.243 19.35 19.35 0 003.402-5.461 19.3 19.3 0 003.402 5.46.727.727 0 00.546.244h2.615c.442 0 .656-.544.327-.84a16.38 16.38 0 01-5.426-11.52.722.722 0 00-.723-.69zm-5.982 0h-1.471a.718.718 0 00-.711.586c-.964 5.435-5.706 9.563-11.418 9.563h-6.768a.483.483 0 01-.482-.482V63.85c0-5.712 4.13-10.454 9.564-11.417a.721.721 0 00.585-.712V50.25c0-.446-.4-.789-.838-.718-6.92 1.096-12.211 7.09-12.211 14.318v9.423c0 .401.324.727.725.727h9.425c7.228 0 13.222-5.291 14.32-12.21a.729.729 0 00-.72-.84zM29.05 45.74v-1.485a.721.721 0 00-.686-.721 16.38 16.38 0 01-11.526-5.426c-.294-.327-.838-.112-.838.327v2.617a.73.73 0 00.243.545 19.327 19.327 0 005.461 3.402 19.331 19.331 0 00-5.46 3.402.726.726 0 00-.244.546v2.614c0 .44.544.656.838.328a16.389 16.389 0 0111.523-5.426.722.722 0 00.69-.723z" fill="#ADCE6D"/><path d="M20.889 101.267v4.567h-.756v-3.197l-1.463 2.165h-.45l-1.465-2.171v3.203H16v-4.567h.682l1.763 2.615 1.762-2.615h.682zm4.511 0v.678h-2.438v1.246h2.24v.679h-2.24v1.285h2.478v.679h-3.233v-4.567H25.4zm2.056 3.885h2.152v-3.202h-1.49c-.072 1.136-.225 2.374-.662 3.202zm-1.378 1.716v-1.716h.557c.59-1.056.74-2.543.74-3.887h2.989v3.887h.589v1.716h-.689v-1.036h-3.497v1.036h-.689zm9.04-1.036v-2.843c0-.164 0-.34.005-.497l-2.495 3.34h-.71v-4.567h.756v2.838c0 .171 0 .346-.008.502l2.498-3.34h.71v4.567h-.756zm5.875 1.036l.006-1.037H37.19v-4.566h.755v3.875h2.398v-3.875h.756v3.875h.582v1.728h-.689zm5.199-1.036v-2.843c0-.164 0-.34.006-.497l-2.496 3.34h-.71v-4.567h.756v2.838c0 .171 0 .346-.008.502l2.498-3.34h.71v4.567h-.756zm6.028-4.565v4.567h-.756v-1.945H49.02v1.945h-.754v-4.567h.754v1.938h2.444v-1.938h.756zm3.488-.087c.464 0 .92.105 1.317.3v.725c-.324-.223-.755-.34-1.191-.34-.888 0-1.808.516-1.815 1.722 0 1.123.94 1.645 1.828 1.645.477 0 .907-.124 1.212-.354v.738a3.107 3.107 0 01-1.345.301c-1.199 0-2.47-.771-2.464-2.33 0-1.624 1.239-2.407 2.458-2.407zm2.386 4.652v-4.567h.754v1.906h.915l1.292-1.906h.854l-1.536 2.225 1.656 2.342h-.855l-1.398-1.976h-.928v1.976h-.754zm7.883 0v-2.843c0-.164 0-.34.006-.497l-2.496 3.34h-.71v-4.567h.756v2.838c0 .171 0 .346-.008.502l2.498-3.34h.709v4.567h-.755zm5.017-5.231V100a1.684 1.684 0 01-.973.281 1.69 1.69 0 01-.98-.281v.601c.29.201.61.279.98.279.364 0 .683-.078.973-.279zm.252 5.231v-2.844c0-.163 0-.34.006-.496l-2.497 3.34h-.708v-4.567h.755v2.838c0 .17 0 .346-.006.502l2.497-3.34H72v4.567h-.755zM19.803 116l.005-1.037H16v-4.566h.756v3.875h2.397v-3.875h.756v3.875h.583V116h-.69zm4.71-5.604v.678h-2.438v1.246h2.24v.679h-2.24v1.284h2.479v.679H21.32v-4.566h3.193zm5.055 0v4.566h-.756v-1.943h-2.444v1.943h-.755v-4.566h.755v1.938h2.444v-1.938h.756zm4.667 0v.685h-1.53v3.881h-.755v-3.881h-1.536v-.685h3.821zm2.543.68h-.941v1.643h.94c.637 0 1.172-.157 1.172-.823 0-.664-.529-.82-1.171-.82zm-.04-.679c1.1 0 1.98.339 1.98 1.499 0 1.162-.88 1.502-1.98 1.502h-.901v1.564h-.755v-4.565h1.655zm-7.426-15.788c-.33.493-.66.848-.991 1.065-.33.217-.768.326-1.314.326-.589 0-1.077-.174-1.465-.522-.373-.348-.653-.956-.84-1.826l-.474-2.174c-.172-.753-.337-1.333-.495-1.739a2.163 2.163 0 00-.668-.978c-.302-.246-.725-.37-1.27-.37h-2.047v5c0 .551.043.95.13 1.196a.78.78 0 00.473.5c.244.087.625.145 1.142.174v.435a44.148 44.148 0 00-2.736-.066c-1.235 0-2.154.022-2.757.066v-.435c.517-.029.89-.087 1.12-.174a.778.778 0 00.495-.5c.087-.246.13-.645.13-1.196V82.61c0-.551-.043-.95-.13-1.196a.778.778 0 00-.495-.5c-.23-.087-.603-.145-1.12-.174v-.435c.603.044 1.48.066 2.628.066l2.326-.022c.273-.015.582-.022.926-.022 1.666 0 2.944.355 3.835 1.065.904.696 1.357 1.602 1.357 2.718 0 .565-.137 1.137-.41 1.717-.258.565-.703 1.08-1.335 1.544-.618.449-1.43.753-2.434.913l.258.043c.948.16 1.637.45 2.068.87.43.42.747 1.087.948 2l.538 2.217c.144.667.295 1.13.453 1.391.158.261.373.392.646.392a.916.916 0 00.603-.196c.172-.13.366-.34.581-.63l.324.239zm-7.97-13.87c-.445 0-.783.05-1.012.152-.216.102-.367.283-.453.544-.086.26-.13.652-.13 1.174v5.348h1.444c1.422 0 2.398-.32 2.93-.957.53-.638.797-1.522.797-2.652 0-1.189-.28-2.087-.84-2.696-.56-.609-1.473-.913-2.736-.913zM37.7 80c1.364 0 2.556.312 3.576.935 1.034.623 1.83 1.529 2.39 2.717.575 1.174.862 2.58.862 4.218 0 1.594-.294 3.007-.883 4.239-.574 1.232-1.386 2.188-2.434 2.87C40.177 95.658 39 96 37.68 96c-1.365 0-2.564-.311-3.598-.935-1.02-.623-1.816-1.522-2.39-2.695-.56-1.189-.84-2.602-.84-4.24 0-1.594.287-3.007.861-4.239.589-1.232 1.4-2.188 2.434-2.87C35.194 80.342 36.379 80 37.7 80zm-.086.391c-.92 0-1.73.326-2.434.979-.69.637-1.228 1.536-1.616 2.695-.373 1.16-.56 2.486-.56 3.978 0 1.508.209 2.834.625 3.979.43 1.145 1.005 2.029 1.723 2.652.718.623 1.522.935 2.413.935.919 0 1.723-.32 2.412-.957.704-.652 1.242-1.558 1.616-2.717.387-1.16.581-2.486.581-3.978 0-1.508-.215-2.834-.646-3.979-.416-1.145-.984-2.029-1.702-2.652-.718-.623-1.522-.935-2.412-.935zm14.22-.326c.633 0 1.128.073 1.487.218.373.13.754.326 1.142.587.316.203.56.304.732.304.13 0 .23-.073.301-.218.072-.159.13-.405.173-.739h.495c-.072.841-.107 2.32-.107 4.435h-.496c-.086-1.174-.423-2.16-1.012-2.956-.575-.812-1.415-1.218-2.52-1.218-.776 0-1.408.24-1.896.718-.488.463-.732 1.065-.732 1.804 0 .55.122 1.029.366 1.435.258.406.581.753.97 1.043.387.29.94.66 1.658 1.109l.624.391c.905.566 1.616 1.066 2.133 1.5.531.42.955.906 1.27 1.457.317.55.475 1.195.475 1.935 0 1.319-.431 2.34-1.293 3.065-.861.71-1.953 1.065-3.274 1.065-.69 0-1.256-.072-1.701-.217a6.121 6.121 0 01-1.25-.587c-.316-.203-.56-.305-.732-.305-.13 0-.23.08-.302.24-.072.144-.129.384-.172.717h-.495c.057-.797.086-2.536.086-5.218h.495c.1 1.464.46 2.653 1.077 3.566.618.913 1.565 1.37 2.843 1.37.776 0 1.436-.24 1.982-.718.546-.493.819-1.218.819-2.174 0-.812-.273-1.5-.819-2.065-.531-.566-1.379-1.203-2.542-1.913a25.598 25.598 0 01-2.068-1.392 5.119 5.119 0 01-1.27-1.456c-.33-.58-.496-1.254-.496-2.022 0-1.217.388-2.145 1.163-2.782.776-.653 1.738-.979 2.887-.979zM74 80.74c-.517.03-.897.087-1.141.174a.78.78 0 00-.474.5c-.087.246-.13.645-.13 1.196v10.78c0 .551.043.95.13 1.196a.78.78 0 00.474.5c.244.087.624.145 1.141.174v.435c-.603-.044-1.522-.066-2.757-.066-1.163 0-2.075.022-2.736.066v-.435c.517-.029.89-.087 1.12-.174a.778.778 0 00.496-.5c.086-.246.13-.645.13-1.196v-5.217h-7.001v5.217c0 .551.043.95.129 1.196a.78.78 0 00.474.5c.244.087.624.145 1.141.174v.435a44.144 44.144 0 00-2.735-.066c-1.235 0-2.154.022-2.757.066v-.435c.517-.029.89-.087 1.12-.174a.778.778 0 00.495-.5c.086-.246.13-.645.13-1.196V82.61c0-.551-.044-.95-.13-1.196a.778.778 0 00-.495-.5c-.23-.087-.603-.145-1.12-.174v-.435c.603.044 1.522.066 2.757.066 1.149 0 2.06-.022 2.735-.066v.435c-.517.03-.897.087-1.141.174a.78.78 0 00-.474.5c-.086.246-.13.645-.13 1.196v5.13h7.001v-5.13c0-.551-.043-.95-.13-1.196a.778.778 0 00-.495-.5c-.23-.087-.603-.145-1.12-.174v-.435c.661.044 1.573.066 2.736.066 1.235 0 2.154-.022 2.757-.066v.435zM54 52.404c-.372.566-.744.973-1.117 1.222-.372.25-.865.374-1.48.374-.664 0-1.214-.2-1.65-.598-.421-.4-.737-1.097-.947-2.095l-.534-2.493c-.194-.864-.38-1.529-.558-1.994a2.48 2.48 0 00-.753-1.122c-.34-.282-.817-.424-1.432-.424h-2.306v5.734c0 .632.049 1.089.146 1.371a.887.887 0 00.534.574c.275.1.704.166 1.286.2v.498c-.744-.05-1.772-.075-3.082-.075-1.392 0-2.427.025-3.107.075v-.499c.583-.033 1.003-.1 1.262-.2a.882.882 0 00.558-.572c.097-.283.146-.74.146-1.372V38.643c0-.632-.049-1.089-.146-1.371a.885.885 0 00-.558-.574c-.259-.1-.68-.166-1.262-.2V36c.68.05 1.667.075 2.961.075l2.622-.025a19.44 19.44 0 011.043-.025c1.877 0 3.317.407 4.32 1.221 1.02.798 1.53 1.837 1.53 3.117 0 .648-.154 1.305-.461 1.97-.292.648-.793 1.238-1.505 1.77-.696.515-1.61.864-2.743 1.047l.291.05c1.068.182 1.845.515 2.33.997.486.482.842 1.246 1.068 2.293l.607 2.543c.162.765.332 1.297.51 1.596.178.299.42.449.728.449.275 0 .502-.075.68-.225.194-.15.412-.39.655-.723l.364.274zM45.02 36.5c-.502 0-.883.058-1.141.174-.243.116-.413.324-.51.623-.097.3-.146.748-.146 1.347v6.133h1.627c1.602 0 2.702-.366 3.3-1.097.6-.732.898-1.745.898-3.042 0-1.363-.315-2.393-.946-3.091-.631-.698-1.659-1.047-3.083-1.047z" fill="#FBF9F7"/><defs><filter id="filter0_b_1257_15453" x="-10" y="-10" width="110" height="152" filterUnits="userSpaceOnUse" color-interpolation-filters="sRGB"><feFlood flood-opacity="0" result="BackgroundImageFix"/><feGaussianBlur in="BackgroundImage" stdDeviation="5"/><feComposite in2="SourceAlpha" operator="in" result="effect1_backgroundBlur_1257_15453"/><feBlend in="SourceGraphic" in2="effect1_backgroundBlur_1257_15453" result="shape"/></filter></defs></svg>